<svg width="11800" height="4585" viewBox="0 0 11800 4585" fill="none" xmlns="http://www.w3.org/2000/svg">
<rect width="11800" height="4585" fill="#E5E5E5"/>
<rect width="1440" height="1024" transform="translate(10360)" fill="white"/>
<path d="M10967.6 818.939C10978.2 817.398 10988.8 815.363 10998.9 811.684C11013.5 806.382 11026.8 798.54 11039.6 789.881C11052.1 781.391 11063.1 773.291 11075.2 763.915C11089.1 753.051 11104.7 741.537 11115.1 726.889C11123 715.792 11126.7 701.114 11126.7 687.643C11126.7 685.318 11125.8 673.768 11120.9 673.768C11117.8 673.768 11116.5 679.897 11116.2 681.815C11115.3 687.122 11115.4 694.033 11115.4 699.02C11115.1 724.385 11115.7 749.827 11114.5 775.173C11112.7 812.442 11106.6 850.719 11089 884.191C11070.4 919.668 11033.4 946.798 10991.7 939.849C10967.5 935.828 10947.5 917.619 10933.4 898.66C10910.5 867.817 10901 830.923 10909 793.013C10917.7 751.454 10936.7 709.545 10970.9 683.044C10980.9 675.274 11003.4 663.04 11015.7 658.069C11026 653.901 11040.2 648.583 11048.6 659.1C11055.2 667.402 11058 678.536 11060.4 688.475C11064 703.605 11065.4 715.37 11066.5 730.853C11068.5 759.996 11067.3 789.537 11063.3 818.463C11061.7 830.393 11061.6 828.706 11059.9 839.632C11059.4 842.956 11057.4 846.887 11059.2 849.702C11061 852.357 11065.7 850.073 11068.7 849.226C11079.4 846.277 11089.6 842.17 11100.4 839.87C11110.1 837.831 11120.5 837.117 11129.8 841.059C11145.6 847.799 11157.4 864.307 11169.7 875.628C11172.2 877.899 11177.5 882.565 11180.8 884.746C11180.8 884.753 11183.6 886.529 11184.3 885.776C11186 884.101 11185.6 881.222 11185.8 878.878C11186.4 869.125 11185.8 859.263 11183.1 849.82C11180.5 840.643 11177.2 833.647 11172.7 825.202C11170.4 820.788 11166 812.468 11161.9 808.513C11154.3 801.171 11150.6 815.738 11150.1 820.287C11147.8 840.396 11147.4 866.392 11172.9 868.77C11179.7 869.407 11186.1 868.329 11192.1 864.924C11195.4 863.013 11195.4 868.615 11196.2 871.029C11197 873.382 11198.7 879.967 11201.1 881.257C11202.1 881.772 11202.1 879.196 11202.2 878.086C11202.5 869.787 11201.3 861.25 11199.9 853.111C11195.4 826.107 11187.5 799.749 11181.8 772.993C11168.5 710.771 11166.5 646.607 11173.8 583.383C11178.4 543.781 11190 507.024 11208 471.591C11214.3 459.122 11222.5 445.382 11230.5 433.851C11233.8 429.043 11237.4 424.424 11241.1 419.857C11244.3 415.751 11250.5 405.384 11253.3 409.867C11254.8 412.442 11254.4 415.845 11254.3 418.866C11254.3 425.725 11253.6 432.565 11253 439.401C11251.1 462.974 11249.4 476.703 11245.9 500.728C11242 526.251 11236.3 557.266 11232 582.273C11220.8 647.16 11210 712.123 11200.2 777.235C11192.2 830.225 11185.1 883.301 11180.3 936.677C11179.1 949.757 11178.2 961.973 11177.3 974.972C11177.2 975.785 11177 990.738 11176.5 978.342C11175.1 945.862 11170.8 913.653 11164.7 881.733C11145.1 779.769 11117.2 679.334 11089.4 579.339C11085.6 565.542 11081.8 551.746 11077.9 537.952C11076.8 533.804 11076.3 529.362 11074.2 525.584C11073.3 523.984 11074 529.26 11074.3 531.055C11079.2 558.35 11087.7 585.363 11095.2 611.965C11107.7 656.299 11120.8 700.467 11132.7 744.966C11135.2 754.312 11138.1 764.734 11139.8 774.42C11140.3 777.378 11141.2 784.608 11138.5 783.34C11137.6 782.925 11135.8 780.678 11136.1 781.596C11137.1 784.075 11139.6 785.608 11141.5 787.463C11161.2 806.625 11182.7 823.752 11202.7 842.526C11205.5 845.181 11213 850.7 11211.7 855.846C11209.8 862.913 11203 867.917 11201.4 874.993C11200.3 879.835 11207.6 880.427 11210.6 880.543C11233 881.436 11254.6 868.998 11270.2 854.023C11286.3 838.666 11297.9 823.095 11310.7 804.747C11325.3 783.887 11336.1 766.459 11347.5 743.856C11370.3 698.291 11380.9 646.535 11389.8 596.703C11391.1 589.203 11393.8 572.269 11394 563.165C11394 560.745 11393.6 554.321 11391.5 551.986C11381.9 541.293 11368.4 572.441 11366.9 576.009C11354.7 605.668 11353.1 638.818 11355.3 670.477C11356.8 692.915 11359 709.259 11367.2 730.021C11375.3 750.802 11390 767.721 11404.3 784.371C11408.4 789.069 11421 802.686 11425.6 808.235C11427.5 810.49 11431.4 815.073 11432.4 818.542C11433.2 821.289 11429.1 821.865 11430.9 824.211C11433.5 827.713 11437.2 829.91 11440.9 832.18C11456.4 841.681 11467.5 846.491 11485.6 854.141C11523.4 870.07 11562.1 884.412 11600.5 898.501C11621.9 906.316 11643.2 913.973 11664.6 921.534C11686.6 929.299 11708.4 937.947 11730.9 943.892C11731.4 944.03 11732.6 943.286 11732.2 942.941C11729.2 940.429 11725.6 938.742 11722.3 936.677C11709.2 928.592 11699.3 922.918 11686.8 913.922C11667.4 900.015 11651.4 882.462 11638.8 862.229C11630.5 848.739 11624 830.71 11624 814.657" stroke="black" stroke-width="3" stroke-linecap="round"/>
<rect width="1" height="46" transform="translate(11105 1644)" fill="white"/>
<rect width="1440" height="1024" transform="translate(0 3561)" fill="white"/>
<rect y="3561" width="1440" height="150" fill="#C4C4C4"/>
</svg>
